# xmcd
#
# Track frame offsets: 
#        150
#        16893
#        45197
#        64012
#        84558
#        102029
#        130830
#        145525
#        163765
#        184121
#        203766
#        217731
#
# Disc length: 3330 seconds
#
# Revision: 2
# Processed by: cddbd v1.5.2PL0 Copyright (c) Steve Scherf et al.
# Submitted via: ExactAudioCopy v1.0b3
#
DISCID=910d000c
DTITLE=Lanegan, Mark - Blues Funeral
DYEAR=2012
DGENRE=Blues
TTITLE0=The Gravedigger's Song
TTITLE1=Bleeding Muddy Water
TTITLE2=Gray Goes Black
TTITLE3=St Louis Elegy
TTITLE4=Riot In My House
TTITLE5=Ode To Sad Disco
TTITLE6=Phantasmagoria Blues
TTITLE7=Quiver Syndrome
TTITLE8=Harborview Hospital
TTITLE9=Leviathan
TTITLE10=Deep Black Vanishing Train
TTITLE11=Tiny Grain Of Truth
EXTD=YEAR: 2012
EXTT0=
EXTT1=
EXTT2=
EXTT3=
EXTT4=
EXTT5=
EXTT6=
EXTT7=
EXTT8=
EXTT9=
EXTT10=
EXTT11=
PLAYORDER=
